<?xml version="1.0" encoding="utf-8"?>
<!-- Generator: Adobe Illustrator 26.1.0, SVG Export Plug-In . SVG Version: 6.00 Build 0)  -->
<svg version="1.1" id="Layer_1" xmlns="http://www.w3.org/2000/svg" xmlns:xlink="http://www.w3.org/1999/xlink" x="0px" y="0px"
	 viewBox="0 0 400 120" style="enable-background:new 0 0 400 120;" xml:space="preserve">
<style type="text/css">
	.st0{opacity:0.2;fill:#FFDB00;}
</style>
<polygon class="st0" points="70.744,28.359 77.887,42.831 93.857,45.152 82.301,56.416 85.029,72.322 70.744,64.812 56.46,72.322 
	59.188,56.416 47.632,45.152 63.602,42.831 "/>
<polygon class="st0" points="13.633,1.248 20.775,15.72 36.746,18.04 25.19,29.305 27.918,45.211 13.633,37.701 -0.651,45.211 
	2.077,29.305 -9.479,18.04 6.491,15.72 "/>
<polygon class="st0" points="305.856,46.804 312.998,61.275 328.968,63.596 317.412,74.861 320.14,90.766 305.856,83.257 
	291.571,90.766 294.299,74.861 282.743,63.596 298.713,61.275 "/>
<polygon class="st0" points="214.3,16.038 221.442,30.509 237.412,32.83 225.856,44.094 228.584,60 214.3,52.49 200.016,60 
	202.744,44.094 191.188,32.83 207.158,30.509 "/>
<polygon class="st0" points="264.208,73.07 267.364,88.896 282.19,95.269 268.114,103.161 266.635,119.231 254.779,108.282 
	239.038,111.841 245.788,97.183 237.539,83.312 253.566,85.202 "/>
<polygon class="st0" points="182.164,103.959 185.32,119.785 200.146,126.158 186.07,134.05 184.591,150.12 172.735,139.171 
	156.994,142.73 163.744,128.072 155.495,114.201 171.522,116.09 "/>
<polygon class="st0" points="257.248,6.411 272.24,12.384 285.66,3.42 284.612,19.524 297.284,29.517 281.644,33.497 
	276.057,48.636 267.439,34.992 251.313,34.356 261.626,21.944 "/>
<polygon class="st0" points="346.877,19.535 346.606,35.671 359.744,45.042 344.315,49.77 339.463,65.161 330.197,51.948 
	314.06,52.09 323.764,39.195 318.642,23.891 333.904,29.135 "/>
<polygon class="st0" points="376.607,77.334 389.149,87.49 404.625,82.916 398.841,97.982 407.973,111.288 391.858,110.443 
	382.025,123.24 377.849,107.652 362.64,102.255 376.174,93.466 "/>
<polygon class="st0" points="117.727,81.817 119.213,97.887 133.293,105.773 118.47,112.152 115.321,127.979 104.673,115.852 
	88.647,117.749 96.89,103.875 90.134,89.219 105.876,92.771 "/>
<polygon class="st0" points="182.164,-16.041 185.32,-0.215 200.146,6.158 186.07,14.05 184.591,30.12 172.735,19.171 
	156.994,22.73 163.744,8.072 155.495,-5.799 171.522,-3.91 "/>
<polygon class="st0" points="376.607,-42.666 389.149,-32.51 404.625,-37.084 398.841,-22.018 407.973,-8.712 391.858,-9.557 
	382.025,3.24 377.849,-12.348 362.64,-17.745 376.174,-26.534 "/>
<polygon class="st0" points="117.727,-38.183 119.213,-22.113 133.293,-14.227 118.47,-7.848 115.321,7.979 104.673,-4.148 
	88.647,-2.251 96.89,-16.125 90.134,-30.781 105.876,-27.229 "/>
<polygon class="st0" points="335.725,93.373 337.211,109.442 351.291,117.328 336.467,123.707 333.318,139.535 322.671,127.408 
	306.645,129.304 314.888,115.43 308.132,100.774 323.874,104.327 "/>
<polygon class="st0" points="335.725,-26.627 337.211,-10.558 351.291,-2.672 336.467,3.707 333.318,19.535 322.671,7.408 
	306.645,9.304 314.888,-4.57 308.132,-19.226 323.874,-15.673 "/>
<polygon class="st0" points="118.474,14.919 130.12,26.091 145.925,22.83 138.899,37.359 146.884,51.383 130.896,49.19 
	120.026,61.118 117.17,45.235 102.467,38.582 116.691,30.959 "/>
<polygon class="st0" points="164.818,51.872 178.963,59.641 193.382,52.394 190.364,68.247 201.712,79.721 185.702,81.749 
	178.296,96.088 171.42,81.488 155.495,78.876 167.255,67.825 "/>
<polygon class="st0" points="32.635,62.194 37.103,77.701 52.41,82.812 39.043,91.853 38.912,107.991 26.183,98.071 10.795,102.934 
	16.295,87.762 6.915,74.63 23.044,75.173 "/>
<polygon class="st0" points="413.633,1.248 420.775,15.72 436.746,18.04 425.19,29.305 427.918,45.211 413.633,37.701 
	399.349,45.211 402.077,29.305 390.521,18.04 406.491,15.72 "/>
<polygon class="st0" points="-23.393,77.334 -10.851,87.49 4.625,82.916 -1.159,97.982 7.973,111.288 -8.142,110.443 
	-17.975,123.24 -22.151,107.652 -37.36,102.255 -23.826,93.466 "/>
</svg>
